# xmcd
#
# Track frame offsets: 
#        150
#        6778
#        23496
#        49942
#        65534
#        89160
#        105939
#        124453
#        142688
#        166088
#        196080
#
# Disc length: 2729 seconds
#
# Revision: 0
# Processed by: cddbd v1.5.1PL2 Copyright (c) Steve Scherf et al.
# Submitted via: ExactAudioCopy v0.95b3
#
DISCID=860aa70b
DTITLE=Denetria Champ - I Really Love You
DYEAR=2004
DGENRE=Gospel
TTITLE0=(Preview) DeNetria's Church Medley
TTITLE1=Go on Through It
TTITLE2=I Really Love You [Radio Edit]
TTITLE3=When God Gets Through
TTITLE4=DeNetria's Church Medley
TTITLE5=Can't Forget
TTITLE6=Thank You for Your Love
TTITLE7=Say the World
TTITLE8=Silent Night
TTITLE9=I Really Love You [Extended Mix]
TTITLE10=JDI Sampler
EXTD=
EXTT0=
EXTT1=
EXTT2=
EXTT3=
EXTT4=
EXTT5=
EXTT6=
EXTT7=
EXTT8=
EXTT9=
EXTT10=
PLAYORDER=
